
<svg width="24px" height="24px" viewBox="0 0 24 24" version="1.1" xmlns="http://www.w3.org/2000/svg" xmlns:xlink="http://www.w3.org/1999/xlink">
    <!-- Generator: Sketch 63.1 (92452) - https://sketch.com -->
    <title>新icon/加粗@3x</title>
    <desc>Created with Sketch.</desc>
    <g id="新icon/加粗" stroke="none" stroke-width="1" fill="none" fill-rule="evenodd">
        <g id="_图标/工具栏/加粗">
            <g id="_图标/工具栏/icon/加粗">
                <rect id="Rectangle" fill="#000000" opacity="0" x="0" y="0" width="24" height="24"></rect>
                <g id="编组-5" transform="translate(7.000000, 5.500000)" stroke="currentColor" stroke-width="1.3">
                    <path d="M5.5,0.65 L0.65,0.65 L0.65,6.35 L5.5,6.35 C6.28700577,6.35 6.99950577,6.03100288 7.51525433,5.51525433 C8.03100288,4.99950577 8.35,4.28700577 8.35,3.5 C8.35,2.71299423 8.03100288,2.00049423 7.51525433,1.48474567 C6.99950577,0.968997116 6.28700577,0.65 5.5,0.65 Z" id="矩形"></path>
                    <path d="M6.25,6.4 L0.65,6.4 L0.65,12.6 L6.25,12.6 C7.10604136,12.6 7.88104136,12.2530207 8.44203102,11.692031 C9.00302068,11.1310414 9.35,10.3560414 9.35,9.5 C9.35,8.64395864 9.00302068,7.86895864 8.44203102,7.30796898 C7.88104136,6.74697932 7.10604136,6.4 6.25,6.4 Z" id="矩形备份-3"></path>
                </g>
            </g>
        </g>
    </g>
</svg>