<svg width="24px" height="24px" viewBox="0 0 24 24" version="1.1" xmlns="http://www.w3.org/2000/svg" xmlns:xlink="http://www.w3.org/1999/xlink">
    <!-- Generator: Sketch 63.1 (92452) - https://sketch.com -->
    <title>插入/链接@3x</title>
    <desc>Created with Sketch.</desc>
    <g id="插入/链接" stroke="none" stroke-width="1" fill="none" fill-rule="evenodd">
        <path d="M11.6381692,6.34887691 C13.4366718,4.55037436 16.3526205,4.55037436 18.1511231,6.34887691 C19.9496256,8.14737946 19.9496256,11.0633282 18.1511231,12.8618308 L16.3419692,14.6709846 C16.0562029,14.8762258 15.6563953,14.8538045 15.4012092,14.5986185 C15.1460232,14.3434324 15.1236015,13.9436252 15.3339451,13.6630256 L17.1379969,11.8487046 C18.3769654,10.6097362 18.3769654,8.60097149 17.1379969,7.36200307 C15.9417516,6.16575769 14.0278839,6.12450788 12.7821474,7.23825357 L12.6512954,7.36200307 L10.8421415,9.17115692 C10.5563752,9.37639808 10.1565676,9.35397684 9.90138153,9.09879076 C9.64619545,8.84360468 9.62377377,8.44379752 9.83411736,8.16319787 L9.82901538,8.15803076 L11.6381692,6.34887691 Z M7.65803076,10.3290154 C7.93779782,10.0492483 8.39138985,10.0492483 8.67115692,10.3290154 C8.92294727,10.5808057 8.94812585,10.9733948 8.74669356,11.2533448 L8.67115692,11.3421415 L6.86200307,13.1512954 C5.62303464,14.3902638 5.62303464,16.3990285 6.86200307,17.6379969 C8.05824844,18.8342423 9.97211533,18.8754928 11.2178519,17.7617472 L11.3487046,17.6379969 L13.1578585,15.8288431 C13.4376255,15.549076 13.8912176,15.549076 14.1709846,15.8288431 C14.422775,16.0806334 14.4479536,16.4732225 14.2465213,16.7531725 L14.1709846,16.8419692 L12.3618308,18.6511231 C10.5633282,20.4496256 7.64737946,20.4496256 5.84887691,18.6511231 C4.05037436,16.8526205 4.05037436,13.9366718 5.84887691,12.1381692 L7.65803076,10.3290154 Z M13.9357946,9.55107922 C14.1855866,9.3012872 14.5905795,9.3012872 14.8403715,9.55107922 L14.9489208,9.65962846 C15.1987128,9.90942048 15.1987128,10.3144134 14.9489208,10.5642054 L10.0642054,15.4489208 C9.81441336,15.6987128 9.40942048,15.6987128 9.15962846,15.4489208 L9.05107922,15.3403715 C8.8012872,15.0905795 8.8012872,14.6855866 9.05107922,14.4357946 L13.9357946,9.55107922 Z" id="形状" fill="#444D5B" fill-rule="nonzero"></path>
    </g>
</svg>