<?xml version="1.0" encoding="UTF-8"?>
<svg width="24px" height="24px" viewBox="0 0 24 24" version="1.1" xmlns="http://www.w3.org/2000/svg" xmlns:xlink="http://www.w3.org/1999/xlink">
    <!-- Generator: Sketch 63.1 (92452) - https://sketch.com -->
    <title>_图标/工具栏/01_文档/项目符号@3x</title>
    <desc>Created with Sketch.</desc>
    <g id="_图标/工具栏/01_文档/项目符号" stroke="none" stroke-width="1" fill="none" fill-rule="evenodd">
        <g id="_图标/工具栏/icon/项目符号" transform="translate(0.000000, 0.000000)">
            <rect id="Rectangle复制-25" fill="#000000" opacity="0" x="0" y="0" width="24" height="24"></rect>
            <path d="M6.7,16.3 C6.97614237,16.3 7.2,16.5238576 7.2,16.8 L7.2,18 C7.2,18.2761424 6.97614237,18.5 6.7,18.5 L5.5,18.5 C5.22385763,18.5 5,18.2761424 5,18 L5,16.8 C5,16.5238576 5.22385763,16.3 5.5,16.3 L6.7,16.3 Z M20,16.75 L20,18 L9,18 L9,16.75 L20,16.75 Z M6.7,10.9 C6.97614237,10.9 7.2,11.1238576 7.2,11.4 L7.2,12.6 C7.2,12.8761424 6.97614237,13.1 6.7,13.1 L5.5,13.1 C5.22385763,13.1 5,12.8761424 5,12.6 L5,11.4 C5,11.1238576 5.22385763,10.9 5.5,10.9 L6.7,10.9 Z M20,11.38 L20,12.63 L9,12.63 L9,11.38 L20,11.38 Z M6.7,5.5 C6.97614237,5.5 7.2,5.72385763 7.2,6 L7.2,7.2 C7.2,7.47614237 6.97614237,7.7 6.7,7.7 L5.5,7.7 C5.22385763,7.7 5,7.47614237 5,7.2 L5,6 C5,5.72385763 5.22385763,5.5 5.5,5.5 L6.7,5.5 Z M20,6 L20,7.25 L9,7.25 L9,6 L20,6 Z" id="形状结合" fill="#464D5A"></path>
        </g>
    </g>
</svg>