<?xml version="1.0" encoding="UTF-8"?>
<svg width="24px" height="24px" viewBox="0 0 24 24" version="1.1" xmlns="http://www.w3.org/2000/svg" xmlns:xlink="http://www.w3.org/1999/xlink">
    <!-- Generator: Sketch 63.1 (92452) - https://sketch.com -->
    <title>新icon/有序符号@3x</title>
    <desc>Created with Sketch.</desc>
    <g id="新icon/有序符号" stroke="none" stroke-width="1" fill="none" fill-rule="evenodd">
        <g id="_图标/工具栏/icon/数字编号">
            <g>
                <rect id="Rectangle复制-26" fill="#000000" opacity="0" x="0" y="0" width="24" height="24"></rect>
                <path d="M20,16.75 L20,18 L9,18 L9,16.75 L20,16.75 Z M20,11.38 L20,12.63 L9,12.63 L9,11.38 L20,11.38 Z M20,6 L20,7.25 L9,7.25 L9,6 L20,6 Z" id="形状结合" fill="#464D5A"></path>
                <g id="编组-15" transform="translate(5.000000, 5.087000)" fill="#464D5A" fill-rule="nonzero" stroke="#464D5A" stroke-width="0.3">
                    <path d="M1.2505,-1.13686838e-13 L1.6195,-1.13686838e-13 L1.6195,3.213 L1.129,3.213 L1.129,0.5895 C0.9355,0.774 0.688,0.909 0.391,0.9945 L0.391,0.5085 C0.535,0.4725 0.6835,0.4095 0.8455,0.3195 C1.0075,0.2205 1.1425,0.117 1.2505,-1.13686838e-13 Z" id="1"></path>
                    <path d="M1.206,5.137 C1.512,5.137 1.7685,5.2225 1.9665,5.4025 C2.16,5.5825 2.259,5.812 2.259,6.0955 C2.259,6.3745 2.151,6.6265 1.944,6.856 C1.818,6.9865 1.5975,7.1575 1.278,7.3735 C0.9315,7.603 0.7245,7.8055 0.657,7.981 L2.2635,7.981 L2.2635,8.413 L0.0495,8.413 C0.0495,8.0935 0.153,7.8145 0.369,7.5715 C0.486,7.432 0.729,7.2385 1.0935,6.9865 C1.3095,6.8335 1.4625,6.712 1.5525,6.6175 C1.6965,6.4555 1.773,6.28 1.773,6.091 C1.773,5.911 1.7235,5.776 1.6245,5.686 C1.5255,5.596 1.377,5.551 1.188,5.551 C0.9855,5.551 0.8325,5.6185 0.729,5.758 C0.621,5.893 0.567,6.0865 0.558,6.3475 L0.0675,6.3475 C0.072,5.9875 0.1755,5.6995 0.378,5.4835 C0.585,5.2495 0.864,5.137 1.206,5.137 Z" id="2"></path>
                    <path d="M1.188,10.437 C1.512,10.437 1.7685,10.5135 1.9665,10.671 C2.1555,10.8285 2.2545,11.0445 2.2545,11.319 C2.2545,11.67 2.0745,11.9085 1.7235,12.0255 C1.9125,12.084 2.0565,12.174 2.1555,12.291 C2.2635,12.4125 2.3175,12.57 2.3175,12.759 C2.3175,13.056 2.214,13.299 2.0115,13.488 C1.7955,13.677 1.512,13.776 1.17,13.776 C0.8415,13.776 0.576,13.6905 0.378,13.524 C0.153,13.335 0.027,13.0605 -1.13686838e-13,12.7005 L0.495,12.7005 C0.504,12.9165 0.5715,13.083 0.7065,13.2 C0.8235,13.308 0.9765,13.362 1.1655,13.362 C1.3725,13.362 1.539,13.299 1.665,13.182 C1.773,13.074 1.8315,12.9435 1.8315,12.7815 C1.8315,12.5925 1.773,12.453 1.656,12.363 C1.548,12.273 1.386,12.228 1.1745,12.228 L0.9405,12.228 L0.9405,11.859 L1.17,11.859 C1.368,11.859 1.5165,11.814 1.6155,11.7285 C1.7145,11.643 1.7685,11.517 1.7685,11.355 C1.7685,11.193 1.719,11.0715 1.629,10.986 C1.53,10.896 1.3815,10.8555 1.1925,10.8555 C0.999,10.8555 0.846,10.905 0.738,11.004 C0.63,11.103 0.5625,11.2515 0.5445,11.4495 L0.063,11.4495 C0.09,11.13 0.207,10.8825 0.4185,10.7025 C0.6165,10.5225 0.873,10.437 1.188,10.437 Z" id="3"></path>
                </g>
            </g>
        </g>
    </g>
</svg>