<?xml version="1.0" encoding="UTF-8"?>
<svg width="24px" height="24px" viewBox="0 0 24 24" version="1.1" xmlns="http://www.w3.org/2000/svg" xmlns:xlink="http://www.w3.org/1999/xlink">
    <!-- Generator: Sketch 63.1 (92452) - https://sketch.com -->
    <title>新icon/斜体@3x</title>
    <desc>Created with Sketch.</desc>
    <g id="新icon/斜体" stroke="none" stroke-width="1" fill="none" fill-rule="evenodd">
        <g id="工具栏/斜体">
            <g>
                <rect id="Rectangle复制-20" fill="#000000" opacity="0" x="0" y="0" width="24" height="24"></rect>
                <polygon id="矩形" fill="currentColor" points="13 6 14.5 6 10.5 18 9 18"></polygon>
                <path d="M10.625,5.75 L15.875,5.75 C16.220178,5.75 16.5,6.02982203 16.5,6.375 C16.5,6.72017797 16.220178,7 15.875,7 L10.625,7 C10.279822,7 10,6.72017797 10,6.375 C10,6.02982203 10.279822,5.75 10.625,5.75 Z" id="矩形" fill="currentColor"></path>
                <path d="M7.125,17 L12.875,17 C13.220178,17 13.5,17.279822 13.5,17.625 C13.5,17.970178 13.220178,18.25 12.875,18.25 L7.125,18.25 C6.77982203,18.25 6.5,17.970178 6.5,17.625 C6.5,17.279822 6.77982203,17 7.125,17 Z" id="矩形" fill="currentColor"></path>
            </g>
        </g>
    </g>
</svg>