<?xml version="1.0" encoding="UTF-8"?>
<svg width="24px" height="24px" viewBox="0 0 24 24" version="1.1" xmlns="http://www.w3.org/2000/svg" xmlns:xlink="http://www.w3.org/1999/xlink">
    <!-- Generator: Sketch 63.1 (92452) - https://sketch.com -->
    <title>新icon/删除线@3x</title>
    <desc>Created with Sketch.</desc>
    <g id="新icon/删除线" stroke="none" stroke-width="1" fill="none" fill-rule="evenodd">
        <g id="新icon/中划线">
            <g id="工具栏/删除线">
                <rect id="Rectangle复制-22" fill="#000000" opacity="0" x="0" y="0" width="24" height="24"></rect>
                <g id="Wd-16" transform="translate(5.000000, 5.000000)" fill="currentColor">
                    <path d="M9.74317437,7.4433524 C9.94936946,7.6132064 10.1387284,7.80338657 10.308517,8.01114673 C10.7942864,8.63268953 11.0387244,9.41565779 10.9950044,10.2100593 C11.0025257,10.8975586 10.8130105,11.572262 10.4498526,12.1508836 C10.0692192,12.7409012 9.53397154,13.2095412 8.90525589,13.5032665 C8.17100088,13.8467064 7.37036439,14.0160986 6.56312231,13.9987961 C5.68736792,14.0075025 4.81993147,13.8244629 4.01908067,13.4619723 C3.25615782,13.1131353 2.56954539,12.6111137 2,11.9857071 L2.9085863,10.9533537 C3.38138592,11.4837478 3.95056998,11.9150229 4.58442326,12.2231483 C5.21505009,12.5303332 5.90498651,12.6890768 6.60350393,12.6877073 C7.36413184,12.7288507 8.11567941,12.5030265 8.73363403,12.0476483 C9.54003685,11.344103 9.75102184,10.1574631 9.2384042,9.2086766 C9.05714614,8.91096695 8.80765537,8.66292524 8.51153516,8.48602926 C8.10586262,8.2497256 7.68797412,8.03605975 7.25970514,7.8459702 L6.37130965,7.4433524 L9.74317437,7.4433524 Z M6.71455336,8.48656947e-05 C8.16156512,-0.00463190732 9.5475474,0.595856525 10.5508066,1.66217373 L9.74317437,2.63258586 C8.9465077,1.80028778 7.8534412,1.33455154 6.71455336,1.3421442 C6.04856652,1.32191378 5.39611081,1.53702182 4.86709455,1.95123267 C4.40687946,2.31625437 4.14439704,2.88375793 4.16041632,3.4791156 C4.15380526,3.85025084 4.26738453,4.21320668 4.48346922,4.51146893 C4.68404684,4.78867939 4.93836046,5.0206252 5.23052907,5.19282213 C5.51320036,5.37864573 5.88673029,5.54382226 6.37130965,5.76061646 L6.444,5.793 L3.56252839,5.79380146 C3.51841831,5.74948912 3.4754093,5.70400177 3.43354728,5.65738113 C2.91043584,5.07814495 2.63751642,4.30786566 2.67639202,3.52040973 C2.6687588,2.8760547 2.84791436,2.24382126 3.19125759,1.70346787 C3.57059898,1.15337299 4.09114014,0.721099235 4.69547269,0.454320332 C5.32701879,0.151029026 6.016844,-0.00416194084 6.71455336,8.48656947e-05 Z" id="形状结合"></path>
                    <rect id="矩形" x="0" y="7" width="14" height="1.25"></rect>
                </g>
            </g>
        </g>
    </g>
</svg>