<svg width="20px" height="20px" viewBox="0 0 16 16" version="1.1" xmlns="http://www.w3.org/2000/svg" xmlns:xlink="http://www.w3.org/1999/xlink">
<g id="勘误系统" stroke="none" stroke-width="1" fill="none" fill-rule="evenodd"><g id="优化icon" transform="translate(-279.000000, -139.000000)"><g id="编组-14备份-5" transform="translate(279.000000, 139.000000)"><rect id="矩形" x="0" y="0" width="16" height="16"></rect><g id="编组-13" transform="translate(1.333333, 2.666667)" fill="#282F38"><path d="M11.2827918,6 C11.886084,6.00613525 12.3754494,6.19019012 12.7509025,6.55217013 C13.1327737,6.91108251 13.3269153,7.36661831 13.3333333,7.9187912 C13.3333333,8.36052951 13.1921394,8.75317989 12.9097473,9.09675414 L10.6522262,11.0383037 L13.0669008,11.0383037 C13.2140474,11.0383037 13.3333333,11.1523344 13.3333333,11.2929984 L13.3333333,11.7453053 C13.3333333,11.8859693 13.2140474,12 13.0669008,12 L9.59976583,12 C9.45261923,12 9.33333333,11.8859693 9.33333333,11.7453053 L9.33333333,11.1827893 C9.33333333,11.1250003 9.35389152,11.0689292 9.39163147,11.023785 L12.0722022,8.58139535 C12.1780992,8.44948738 12.2503006,8.32678414 12.2888087,8.21328193 C12.3144807,8.10591498 12.3273165,8.0046848 12.3273165,7.90958836 C12.3273165,7.65804293 12.2454882,7.43871088 12.0818291,7.25158562 C11.9117521,7.06446037 11.6710806,6.96783156 11.3598075,6.96169631 C11.0838334,6.96169631 10.8543932,7.04605479 10.6714801,7.21477428 C10.5231793,7.3469303 10.422132,7.52143169 10.3683365,7.73828188 L10.3536155,7.80460741 C10.3395328,7.87616238 10.2741569,7.92799664 10.1979911,7.92799403 L9.47426962,7.92799403 C9.40161363,7.92798891 9.34271432,7.87168443 9.34271432,7.80222934 L9.34330753,7.79029996 C9.39284444,7.29333905 9.5852663,6.87756505 9.92057762,6.54296729 C10.2896128,6.18712254 10.7436796,6.00613525 11.2827918,6 Z" id="路径"></path><path d="M0.427631888,0.669895865 L0.973733251,0.287511574 C1.12453498,0.181919068 1.33238357,0.218568383 1.43797608,0.36937011 L8.32089331,10.1991946 C8.42648582,10.3499964 8.38983651,10.557845 8.23903478,10.6634375 L7.69293342,11.0458218 C7.54213169,11.1514143 7.33428309,11.114765 7.22869059,10.9639632 L0.345773352,1.13413869 C0.240180846,0.983336965 0.276830161,0.775488371 0.427631888,0.669895865 Z" id="矩形"></path><path d="M7.69293342,0.287511574 L8.23903478,0.669895865 C8.38983651,0.775488371 8.42648582,0.983336965 8.32089331,1.13413869 L1.43797608,10.9639632 C1.33238357,11.114765 1.12453498,11.1514143 0.973733251,11.0458218 L0.427631888,10.6634375 C0.276830161,10.557845 0.240180846,10.3499964 0.345773352,10.1991946 L7.22869059,0.36937011 C7.33428309,0.218568383 7.54213169,0.181919068 7.69293342,0.287511574 Z" id="矩形备份-9"></path></g></g></g></g></svg>