<svg width="20px" height="20px" viewBox="0 0 16 16"  version="1.1" xmlns="http://www.w3.org/2000/svg" xmlns:xlink="http://www.w3.org/1999/xlink">
    <g id="勘误系统" stroke="none" stroke-width="1" fill="none" fill-rule="evenodd"><g id="优化icon" transform="translate(-311.000000, -139.000000)"><g id="编组-14备份-4" transform="translate(311.000000, 139.000000)"><rect id="矩形" x="0" y="0" width="16" height="16"></rect><g id="编组-13" transform="translate(1.333333, 1.000000)" fill="#282F38"><path d="M10.486424,0 C11.0897162,0.00613525432 11.5790816,0.190190123 11.9545347,0.552170128 C12.3364058,0.911082506 12.5305475,1.36661831 12.5369655,1.9187912 C12.5369655,2.36052951 12.3957716,2.75317989 12.1133795,3.09675414 L9.8558584,5.03830369 L12.270533,5.03830369 C12.4176796,5.03830369 12.5369655,5.15233439 12.5369655,5.29299838 L12.5369655,5.74530531 C12.5369655,5.8859693 12.4176796,6 12.270533,6 L8.803398,6 C8.65625139,6 8.5369655,5.8859693 8.5369655,5.74530531 L8.5369655,5.18278927 C8.5369655,5.12500027 8.55752369,5.06892919 8.59526364,5.02378501 L11.2758343,2.58139535 C11.3817314,2.44948738 11.4539328,2.32678414 11.4924408,2.21328193 C11.5181128,2.10591498 11.5309487,2.0046848 11.5309487,1.90958836 C11.5309487,1.65804293 11.4491203,1.43871088 11.2854613,1.25158562 C11.1153842,1.06446037 10.8747127,0.967831561 10.5634396,0.961696306 C10.2874655,0.961696306 10.0580254,1.04605479 9.87511231,1.21477428 C9.72681149,1.3469303 9.62576416,1.52143169 9.57196871,1.73828188 L9.55724763,1.80460741 C9.54316495,1.87616238 9.47778909,1.92799664 9.40162322,1.92799403 L8.67790178,1.92799403 C8.6052458,1.92798891 8.54634648,1.87168443 8.54634648,1.80222934 L8.5469397,1.79029996 C8.59647661,1.29333905 8.78889846,0.877565047 9.12420978,0.542967293 C9.49324492,0.187122542 9.94731178,0.00613525432 10.486424,0 Z" id="路径"></path><g id="编组-15" transform="translate(0.000000, 1.666667)"><path d="M0.427631888,0.669895865 L0.973733251,0.287511574 C1.12453498,0.181919068 1.33238357,0.218568383 1.43797608,0.36937011 L8.32089331,10.1991946 C8.42648582,10.3499964 8.38983651,10.557845 8.23903478,10.6634375 L7.69293342,11.0458218 C7.54213169,11.1514143 7.33428309,11.114765 7.22869059,10.9639632 L0.345773352,1.13413869 C0.240180846,0.983336965 0.276830161,0.775488371 0.427631888,0.669895865 Z" id="矩形"></path><path d="M7.69293342,0.287511574 L8.23903478,0.669895865 C8.38983651,0.775488371 8.42648582,0.983336965 8.32089331,1.13413869 L1.43797608,10.9639632 C1.33238357,11.114765 1.12453498,11.1514143 0.973733251,11.0458218 L0.427631888,10.6634375 C0.276830161,10.557845 0.240180846,10.3499964 0.345773352,10.1991946 L7.22869059,0.36937011 C7.33428309,0.218568383 7.54213169,0.181919068 7.69293342,0.287511574 Z" id="矩形备份-9"></path></g></g></g></g></g></svg>