<svg width="18" height="20" viewBox="0 0 18 20" fill="none" xmlns="http://www.w3.org/2000/svg">
<path d="M8.92857 0L17.8571 5V15L8.92857 20L0 15V5L8.92857 0Z" fill="#E6F7FF"/>
<rect x="2" y="7" width="7" height="2.33333" fill="url(#paint0_linear_101_8364)" fill-opacity="0.7"/>
<rect x="3.75" y="7" width="3.5" height="7" fill="url(#paint1_linear_101_8364)" fill-opacity="0.6"/>
<rect opacity="0.7" x="9" y="7" width="3.5" height="7" fill="url(#paint2_linear_101_8364)" fill-opacity="0.6"/>
<path opacity="0.7" d="M9 7H13.6667C14.9553 7 16 8.04467 16 9.33333V9.33333C16 10.622 14.9553 11.6667 13.6667 11.6667H9V7Z" fill="url(#paint3_linear_101_8364)"/>
<defs>
<linearGradient id="paint0_linear_101_8364" x1="5.5" y1="7" x2="5.5" y2="9.33333" gradientUnits="userSpaceOnUse">
<stop offset="0.5625" stop-color="#0084FF"/>
<stop offset="1" stop-color="#0084FF" stop-opacity="0"/>
</linearGradient>
<linearGradient id="paint1_linear_101_8364" x1="5.5" y1="7" x2="5.5" y2="14" gradientUnits="userSpaceOnUse">
<stop stop-color="#1890FF"/>
<stop offset="1" stop-color="#1890FF" stop-opacity="0.3"/>
</linearGradient>
<linearGradient id="paint2_linear_101_8364" x1="10.75" y1="7" x2="10.75" y2="14" gradientUnits="userSpaceOnUse">
<stop stop-color="#1890FF"/>
<stop offset="1" stop-color="#1890FF" stop-opacity="0.5"/>
</linearGradient>
<linearGradient id="paint3_linear_101_8364" x1="12.5" y1="7" x2="12.5" y2="11.6667" gradientUnits="userSpaceOnUse">
<stop offset="0.71875" stop-color="#1890FF"/>
<stop offset="1" stop-color="#1890FF" stop-opacity="0"/>
</linearGradient>
</defs>
</svg>
